<svg width="13" height="16" viewBox="0 0 13 16" fill="none" xmlns="http://www.w3.org/2000/svg">
<path d="M7.45827 1.22002C7.66987 0.600812 8.52544 0.582058 8.77631 1.16376L8.79754 1.22038L9.08308 2.05543C9.14852 2.24693 9.25427 2.42218 9.3932 2.56934C9.53212 2.71651 9.70099 2.83217 9.88841 2.90852L9.96519 2.93718L10.8002 3.22237C11.4195 3.43397 11.4382 4.28954 10.8569 4.54041L10.8002 4.56164L9.96519 4.84718C9.77362 4.91258 9.59831 5.01831 9.45108 5.15723C9.30385 5.29616 9.18814 5.46505 9.11174 5.65251L9.08308 5.72894L8.79789 6.56434C8.5863 7.18356 7.73073 7.20231 7.48021 6.62096L7.45827 6.56434L7.17308 5.72929C7.10769 5.53772 7.00196 5.36241 6.86303 5.21518C6.72411 5.06795 6.55521 4.95224 6.36776 4.87584L6.29133 4.84718L5.45628 4.56199C4.83671 4.3504 4.81796 3.49483 5.39966 3.24431L5.45628 3.22237L6.29133 2.93718C6.48283 2.87174 6.65808 2.766 6.80524 2.62707C6.95241 2.48815 7.06807 2.31928 7.14442 2.13185L7.17308 2.05543L7.45827 1.22002ZM8.12808 1.4486L7.84289 2.28365C7.74325 2.57567 7.58115 2.84246 7.36788 3.06545C7.15461 3.28843 6.8953 3.46225 6.60801 3.57479L6.51955 3.60699L5.6845 3.89218L6.51955 4.17737C6.81157 4.27702 7.07836 4.43912 7.30135 4.65238C7.52433 4.86565 7.69815 5.12496 7.81069 5.41226L7.84289 5.50072L8.12808 6.33577L8.41327 5.50072C8.51292 5.2087 8.67502 4.9419 8.88828 4.71892C9.10155 4.49594 9.36086 4.32212 9.64816 4.20957L9.73662 4.17773L10.5717 3.89218L9.73662 3.60699C9.4446 3.50735 9.1778 3.34525 8.95482 3.13198C8.73184 2.91871 8.55802 2.6594 8.44547 2.37211L8.41363 2.28365L8.12808 1.4486ZM10.9588 6.39335e-08C11.025 -8.34951e-08 11.0898 0.0185686 11.146 0.0535959C11.2022 0.0886232 11.2474 0.138704 11.2765 0.198148L11.2935 0.239546L11.4173 0.602581L11.7807 0.726423C11.8471 0.748961 11.9052 0.790685 11.9478 0.846308C11.9904 0.90193 12.0155 0.968948 12.02 1.03887C12.0245 1.10879 12.0081 1.17846 11.9729 1.23905C11.9378 1.29965 11.8854 1.34844 11.8225 1.37925L11.7807 1.39623L11.4177 1.52007L11.2938 1.88346C11.2713 1.94978 11.2295 2.00791 11.1739 2.05047C11.1182 2.09303 11.0512 2.11812 10.9813 2.12256C10.9114 2.12699 10.8417 2.11057 10.7811 2.07538C10.7206 2.04018 10.6718 1.9878 10.641 1.92486L10.624 1.88346L10.5002 1.52043L10.1368 1.39659C10.0705 1.37405 10.0123 1.33232 9.96971 1.2767C9.92711 1.22108 9.90199 1.15406 9.89751 1.08414C9.89304 1.01422 9.90943 0.944551 9.94459 0.883955C9.97976 0.823358 10.0321 0.774566 10.0951 0.743761L10.1368 0.726777L10.4998 0.602935L10.6237 0.239546C10.6475 0.169637 10.6927 0.108949 10.7528 0.0659898C10.8129 0.0230308 10.8849 -4.43289e-05 10.9588 6.39335e-08Z" fill="white"/>
<path d="M8.40045 9.02553C8.54562 8.6149 8.83126 8.26882 9.2069 8.04845C9.58254 7.82807 10.024 7.7476 10.4532 7.82125C10.8824 7.8949 11.2718 8.11793 11.5525 8.45092C11.8332 8.78391 11.9872 9.20542 11.9872 9.64096C11.9872 10.0765 11.8332 10.498 11.5525 10.831C11.2718 11.164 10.8824 11.387 10.4532 11.4607C10.024 11.5343 9.58254 11.4538 9.2069 11.2335C8.83126 11.0131 8.54562 10.667 8.40045 10.2564H6.7545C6.60885 10.6686 6.32168 11.0157 5.9441 11.236C5.56651 11.4563 5.12302 11.5354 4.69255 11.4594L3.80722 13.025C4.07339 13.3696 4.2092 13.7973 4.19063 14.2323C4.17207 14.6674 4.00033 15.0819 3.70577 15.4026C3.4112 15.7233 3.01277 15.9296 2.58086 15.9849C2.14896 16.0403 1.71139 15.9412 1.34547 15.7052C0.979554 15.4691 0.708835 15.1113 0.581153 14.695C0.453471 14.2787 0.477044 13.8306 0.647706 13.43C0.818368 13.0294 1.12513 12.702 1.5138 12.5056C1.90247 12.3093 2.34802 12.2567 2.77173 12.3571L3.62096 10.8538C3.32826 10.5175 3.1671 10.0868 3.16722 9.64096C3.16722 9.17651 3.3387 8.75309 3.62096 8.42815L2.77173 6.92485C2.34802 7.02524 1.90247 6.97261 1.5138 6.77628C1.12513 6.57994 0.818368 6.25254 0.647706 5.85191C0.477044 5.45128 0.453471 5.00322 0.581153 4.58689C0.708835 4.17057 0.979554 3.81278 1.34547 3.57674C1.71139 3.3407 2.14896 3.24161 2.58086 3.29697C3.01277 3.35233 3.4112 3.55858 3.70577 3.87929C4.00033 4.19999 4.17207 4.6145 4.19063 5.04957C4.2092 5.48464 4.07339 5.91227 3.80722 6.2569L4.69255 7.82256C5.12302 7.74648 5.56651 7.82563 5.9441 8.04592C6.32168 8.2662 6.60885 8.61334 6.7545 9.02553H8.40045ZM1.73132 5.12779C1.73132 5.29101 1.79615 5.44755 1.91156 5.56297C2.02697 5.67838 2.18349 5.74322 2.3467 5.74322C2.50991 5.74322 2.66644 5.67838 2.78184 5.56297C2.89725 5.44755 2.96209 5.29101 2.96209 5.12779C2.96209 4.96457 2.89725 4.80803 2.78184 4.69262C2.66644 4.5772 2.50991 4.51236 2.3467 4.51236C2.18349 4.51236 2.02697 4.5772 1.91156 4.69262C1.79615 4.80803 1.73132 4.96457 1.73132 5.12779ZM5.01337 9.02553C4.85016 9.02553 4.69363 9.09037 4.57823 9.20578C4.46282 9.3212 4.39799 9.47773 4.39799 9.64096C4.39799 9.80418 4.46282 9.96072 4.57823 10.0761C4.69363 10.1915 4.85016 10.2564 5.01337 10.2564C5.17658 10.2564 5.33311 10.1915 5.44851 10.0761C5.56392 9.96072 5.62876 9.80418 5.62876 9.64096C5.62876 9.47773 5.56392 9.3212 5.44851 9.20578C5.33311 9.09037 5.17658 9.02553 5.01337 9.02553ZM10.1416 9.02553C9.97837 9.02553 9.82185 9.09037 9.70644 9.20578C9.59103 9.3212 9.5262 9.47773 9.5262 9.64096C9.5262 9.80418 9.59103 9.96072 9.70644 10.0761C9.82185 10.1915 9.97837 10.2564 10.1416 10.2564C10.3048 10.2564 10.4613 10.1915 10.5767 10.0761C10.6921 9.96072 10.757 9.80418 10.757 9.64096C10.757 9.47773 10.6921 9.3212 10.5767 9.20578C10.4613 9.09037 10.3048 9.02553 10.1416 9.02553ZM2.3467 13.5387C2.18349 13.5387 2.02697 13.6035 1.91156 13.7189C1.79615 13.8344 1.73132 13.9909 1.73132 14.1541C1.73132 14.3173 1.79615 14.4739 1.91156 14.5893C2.02697 14.7047 2.18349 14.7696 2.3467 14.7696C2.50991 14.7696 2.66644 14.7047 2.78184 14.5893C2.89725 14.4739 2.96209 14.3173 2.96209 14.1541C2.96209 13.9909 2.89725 13.8344 2.78184 13.7189C2.66644 13.6035 2.50991 13.5387 2.3467 13.5387Z" fill="white"/>
</svg>
