<svg width="19" height="16" viewBox="0 0 19 16" fill="none" xmlns="http://www.w3.org/2000/svg">
<path d="M6.15903 4.87789V8.33734M4.4293 6.60762H7.88876M12.9854 0.983398H6.01373C4.81653 0.983628 3.66845 1.45937 2.82199 2.306C1.97552 3.15262 1.5 4.3008 1.5 5.49799V12.6461C1.5 14.4407 3.6907 15.3142 4.92659 14.0135L7.50043 11.303H11.4996L13.9861 14.2954C15.1744 15.7259 17.5 14.8852 17.5 13.0266V5.49713C17.4998 4.30008 17.0241 3.15213 16.1777 2.30569C15.3313 1.45925 14.1825 0.983628 12.9854 0.983398Z" stroke="white" stroke-width="1.5" stroke-linecap="round" stroke-linejoin="round"/>
<path d="M11.8014 6.60766C12.279 6.60766 12.6663 6.22045 12.6663 5.74279C12.6663 5.26514 12.279 4.87793 11.8014 4.87793C11.3237 4.87793 10.9365 5.26514 10.9365 5.74279C10.9365 6.22045 11.3237 6.60766 11.8014 6.60766Z" fill="white"/>
<path d="M13.7037 8.51025C14.1814 8.51025 14.5686 8.12303 14.5686 7.64538C14.5686 7.16773 14.1814 6.78052 13.7037 6.78052C13.2261 6.78052 12.8389 7.16773 12.8389 7.64538C12.8389 8.12303 13.2261 8.51025 13.7037 8.51025Z" fill="white"/>
</svg>
