<svg width="19" height="19" viewBox="0 0 19 19" fill="none" xmlns="http://www.w3.org/2000/svg">
<path d="M14.9737 5.28956V2.76325C14.9737 2.53991 14.885 2.32571 14.727 2.16779C14.5691 2.00986 14.3549 1.92114 14.1316 1.92114H3.18421C2.73753 1.92114 2.30914 2.09859 1.99329 2.41444C1.67744 2.73029 1.5 3.15867 1.5 3.60535C1.5 4.05203 1.67744 4.48042 1.99329 4.79627C2.30914 5.11212 2.73753 5.28956 3.18421 5.28956H15.8158C16.0391 5.28956 16.2533 5.37829 16.4112 5.53621C16.5692 5.69414 16.6579 5.90833 16.6579 6.13167V9.50009M16.6579 9.50009H14.1316C13.6849 9.50009 13.2565 9.67753 12.9407 9.99338C12.6248 10.3092 12.4474 10.7376 12.4474 11.1843C12.4474 11.631 12.6248 12.0594 12.9407 12.3752C13.2565 12.6911 13.6849 12.8685 14.1316 12.8685H16.6579C16.8812 12.8685 17.0954 12.7798 17.2534 12.6219C17.4113 12.4639 17.5 12.2497 17.5 12.0264V10.3422C17.5 10.1189 17.4113 9.90466 17.2534 9.74674C17.0954 9.58881 16.8812 9.50009 16.6579 9.50009Z" stroke="white" stroke-width="2" stroke-linecap="round" stroke-linejoin="round"/>
<path d="M1.5 3.60547V15.3949C1.5 15.8416 1.67744 16.27 1.99329 16.5859C2.30914 16.9017 2.73753 17.0792 3.18421 17.0792H15.8158C16.0391 17.0792 16.2533 16.9904 16.4112 16.8325C16.5692 16.6746 16.6579 16.4604 16.6579 16.237V12.8686" stroke="white" stroke-width="2" stroke-linecap="round" stroke-linejoin="round"/>
</svg>
