<svg width="32" height="28" viewBox="0 0 32 28" fill="none" xmlns="http://www.w3.org/2000/svg">
<path d="M18 2.00005C18 2.59205 17.7427 3.12405 17.3333 3.49071V6.00005H24C25.0609 6.00005 26.0783 6.42147 26.8284 7.17162C27.5786 7.92176 28 8.93918 28 10V23.3334C28 24.3942 27.5786 25.4117 26.8284 26.1618C26.0783 26.912 25.0609 27.3334 24 27.3334H8C6.93913 27.3334 5.92172 26.912 5.17157 26.1618C4.42143 25.4117 4 24.3942 4 23.3334V10C4 8.93918 4.42143 7.92176 5.17157 7.17162C5.92172 6.42147 6.93913 6.00005 8 6.00005H14.6667V3.49071C14.418 3.2683 14.2289 2.98722 14.1167 2.67307C14.0044 2.35891 13.9725 2.02166 14.0239 1.69203C14.0752 1.36239 14.2082 1.05084 14.4108 0.78575C14.6133 0.520658 14.879 0.310444 15.1835 0.174249C15.4881 0.0380552 15.8219 -0.0197922 16.1545 0.00597473C16.4871 0.0317416 16.808 0.140304 17.0879 0.321777C17.3679 0.50325 17.598 0.751867 17.7573 1.04499C17.9166 1.33811 18 1.66643 18 2.00005ZM0 12.6667H2.66667V20.6667H0V12.6667ZM32 12.6667H29.3333V20.6667H32V12.6667ZM12 18.6667C12.5304 18.6667 13.0391 18.456 13.4142 18.0809C13.7893 17.7059 14 17.1971 14 16.6667C14 16.1363 13.7893 15.6276 13.4142 15.2525C13.0391 14.8774 12.5304 14.6667 12 14.6667C11.4696 14.6667 10.9609 14.8774 10.5858 15.2525C10.2107 15.6276 10 16.1363 10 16.6667C10 17.1971 10.2107 17.7059 10.5858 18.0809C10.9609 18.456 11.4696 18.6667 12 18.6667ZM22 16.6667C22 16.1363 21.7893 15.6276 21.4142 15.2525C21.0391 14.8774 20.5304 14.6667 20 14.6667C19.4696 14.6667 18.9609 14.8774 18.5858 15.2525C18.2107 15.6276 18 16.1363 18 16.6667C18 17.1971 18.2107 17.7059 18.5858 18.0809C18.9609 18.456 19.4696 18.6667 20 18.6667C20.5304 18.6667 21.0391 18.456 21.4142 18.0809C21.7893 17.7059 22 17.1971 22 16.6667Z" fill="white"/>
</svg>
